<svg width="24" height="24" viewBox="0 0 24 24" fill="none" xmlns="http://www.w3.org/2000/svg">
  <g clip-path="url(#clip0_23_317)">
    <path d="M13.1526 0.827759H12.8414C12.4108 0.827759 12.0618 1.17681 12.0618 1.60739V5.66113C12.0618 6.0917 12.4108 6.44075 12.8414 6.44075H13.1526C13.5832 6.44075 13.9322 6.0917 13.9322 5.66113V1.60739C13.9322 1.17681 13.5832 0.827759 13.1526 0.827759Z" fill="black"/>
    <path d="M9.41007 0.827759H9.09886C8.66828 0.827759 8.31923 1.17681 8.31923 1.60739V5.66113C8.31923 6.0917 8.66828 6.44075 9.09886 6.44075H9.41007C9.84064 6.44075 10.1897 6.0917 10.1897 5.66113V1.60739C10.1897 1.17681 9.84064 0.827759 9.41007 0.827759Z" fill="black"/>
    <path d="M13.1526 17.5609H12.8414C12.4108 17.5609 12.0618 17.91 12.0618 18.3405V22.3943C12.0618 22.8249 12.4108 23.1739 12.8414 23.1739H13.1526C13.5832 23.1739 13.9322 22.8249 13.9322 22.3943V18.3405C13.9322 17.91 13.5832 17.5609 13.1526 17.5609Z" fill="black"/>
    <path d="M9.41007 17.5609H9.09886C8.66828 17.5609 8.31923 17.91 8.31923 18.3405V22.3943C8.31923 22.8249 8.66828 23.1739 9.09886 23.1739H9.41007C9.84064 23.1739 10.1897 22.8249 10.1897 22.3943V18.3405C10.1897 17.91 9.84064 17.5609 9.41007 17.5609Z" fill="black"/>
    <path d="M18.7544 13.5585C18.4175 12.9842 17.9635 12.5575 17.4373 12.2142C16.5791 11.6543 15.7016 11.534 15.7016 11.534C16.5454 11.3447 17.2432 10.9549 17.7967 10.3678C18.3501 9.77905 18.6276 9.00905 18.6276 8.05457C18.6276 6.84181 18.1785 5.84723 17.2785 5.0692C16.3802 4.29118 14.7343 3.90297 12.2815 3.90297H12.0602V6.67177H12.7917C13.5504 6.67177 14.1376 6.85144 14.5514 7.20917C14.9653 7.5685 15.1722 8.04013 15.1722 8.62565C15.1722 9.26411 14.9396 9.76622 14.476 10.132C14.0124 10.4977 13.6868 10.5442 13.6868 10.5442C13.159 10.6196 12.2928 10.6806 11.7602 10.6806H11.1586C10.626 10.6806 10.1897 10.2459 10.1897 9.71167V3.90137H8.61279V20.0987H10.1897V16.4652C10.1897 16.4492 10.1929 16.4348 10.1945 16.4203C10.1913 16.3914 10.1897 16.361 10.1897 16.3305V13.9643C10.1897 13.4317 10.626 12.997 11.1586 12.997H13.0612C13.8841 12.997 14.5338 13.2104 15.0102 13.6371C15.4867 14.0638 15.7257 14.6124 15.7257 15.2814C15.7257 15.8877 15.5075 16.3754 15.0728 16.7444C14.6381 17.1133 13.9435 17.1903 13.9435 17.1903C13.4285 17.2481 12.5959 17.2946 12.0602 17.2962V20.0971H13.6852C14.8979 20.0971 15.9182 19.903 16.7459 19.5164C17.5737 19.1298 18.1993 18.5972 18.6244 17.9234C19.0479 17.2481 19.2613 16.4813 19.2613 15.6214C19.2613 14.8194 19.0928 14.1312 18.7544 13.5569V13.5585Z" fill="black"/>
    <path d="M7.71766 3.90295C7.1931 3.91258 6.76639 4.3441 6.76639 4.87027V19.1313C6.76639 19.6575 7.1931 20.089 7.71766 20.0987V3.90295Z" fill="black"/>
    <path d="M9.41007 0.827759H9.09886C8.66828 0.827759 8.31923 1.17681 8.31923 1.60739V22.2563C8.31923 22.6868 8.66828 23.0359 9.09886 23.0359H9.41007C9.84064 23.0359 10.1897 22.6868 10.1897 22.2563V1.60739C10.1897 1.17681 9.84064 0.827759 9.41007 0.827759Z" fill="black"/>
    <path d="M11.9992 24C5.3836 24 0 18.6164 0 11.9992C0 5.38199 5.3836 0 11.9992 0C18.6148 0 24 5.3836 24 11.9992C24 18.6148 18.6164 23.9984 11.9992 23.9984V24ZM11.9992 1.55925C6.24343 1.55925 1.55925 6.24343 1.55925 11.9992C1.55925 17.755 6.24343 22.4407 12.0008 22.4407C17.7582 22.4407 22.4423 17.7566 22.4423 11.9992C22.4423 6.24183 17.7566 1.55925 11.9992 1.55925Z" fill="black"/>
  </g>
  <defs>
    <clipPath id="clip0_23_317">
      <rect width="24" height="24" fill="white"/>
    </clipPath>
  </defs>
</svg>